<svg xmlns="http://www.w3.org/2000/svg" viewBox="0 0 769.2 581" preserveAspectRatio="xMidYMin slice">
  <title>floor-2</title>
  <g>
    <path id="place_2_3" class="place" d="M732.1,177H971.4l8.5,9.5s9.9,22.5,13.9,33.5,9.2,44.5,9.2,44.5,1.3,32.2-.6,49.4l-2.8,17.4s-10.3,38.3-24.2,63.7l-7.1,11.5-12.5,17-18.8,19.6s-30.3,28.2-69.1,45L805,514.3l-50.7,21.2-33.7,14-55.4,23.2-18.5,2.6V509h-3.3v-7.1h-2.6V483.7h2.6V393.9h-2.6V375.7h2.6V351H731v-.9H838.9V264.8H735.7v-18h-3.6Z" transform="translate(-234.9 -170.4)" fill="#d4effc"/>
    <polygon points="496.1 93.4 496.1 174.6 459.2 174.6 459.2 178.6 496.1 178.6 604 178.6 604 93.4 496.1 93.4" fill="#dcddde"/>
    <rect x="234.4" y="179.5" width="92.6" height="53.71" fill="#dcddde"/>
    <rect x="146.2" y="216.6" width="90" height="41.88" fill="#dcddde"/>
    <rect x="62.9" y="286.7" width="57.1" height="110.4" fill="#dcddde"/>
    <polygon points="409.4 409.2 409.4 356.6 387.2 356.6 387.2 364.3 370.6 364.3 370.6 425.6 409.4 409.2" fill="#dcddde"/>
    <polygon id="place_2_1" class="place" points="6.8 574.1 6.8 286.7 60.5 286.7 60.5 399.5 122.4 399.5 122.4 292.2 146.2 292.2 146.2 261.6 236.2 261.6 236.2 258.5 325.1 258.5 325.1 439.8 291 459.1 257.3 473.2 213.1 491.4 159.8 513.7 140.8 521.8 96.1 540.4 64.7 553.4 15.1 574.1 6.8 574.1" fill="#d4effc"/>
    <polygon id="place_2_2" class="place" points="236.2 233.2 236.2 252.4 242.8 252.4 242.8 256.8 253.2 256.8 253.2 258.5 271.4 258.5 271.4 256.8 327 256.8 327 330 325.1 331.8 325.1 344.8 326.9 348.1 327 439 352 433.8 368.8 426.8 368.8 364.3 369.6 364.3 369.6 362.9 385.7 362.9 385.7 355.9 409.4 355.9 409.4 343.4 405.8 330.4 405.8 175.9 353.3 175.9 327 179.5 327 233.2 236.2 233.2" fill="#d8eddd"/>
</g>
<g>
    <rect x="228.8" y="173.9" width="129" height="5.64"/>
    <rect x="394.2" y="173.9" width="65.3" height="5.64"/>
    <rect x="495.1" y="5.5" width="5.6" height="6.48"/>
    <rect x="495.1" y="34.8" width="5.6" height="17.76"/>
    <rect x="495.1" y="75.4" width="5.6" height="23.64"/>
    <rect x="495.1" y="99" width="1.4" height="74.88"/>
    <rect x="369.6" y="362.9" width="17.6" height="1.44"/>
    <rect x="387.2" y="355.9" width="22.3" height="1.44"/>
    <rect x="385.7" y="355.9" width="1.4" height="7.08"/>
    <rect x="62.8" y="399.5" width="1.4" height="72.6"/>
    <rect x="62.8" y="495.5" width="1.4" height="53.64"/>
    <rect x="459.5" y="173.9" width="54" height="1.44"/>
    <rect x="500.8" y="93.4" width="15.1" height="5.64"/>
    <rect x="515.9" y="93.4" width="88.1" height="2.88"/>
    <rect x="601.1" y="84.5" width="2.9" height="8.88"/>
    <rect x="602.5" y="96.2" width="1.4" height="33.43"/>
    <rect x="602.5" y="131.9" width="1.4" height="20.15"/>
    <rect x="591.6" y="96.2" width="2.3" height="33.67"/>
    <rect x="515.8" y="129.7" width="88.2" height="2.28"/>
    <rect x="530" y="152.1" width="74" height="2.28"/>
    <rect x="496.1" y="176.3" width="105.6" height="2.28"/>
    <rect x="515.8" y="152.1" width="3.1" height="2.28"/>
    <rect x="510.9" y="129.7" width="4.8" height="24.66"/>
    <rect x="510.9" y="117.1" width="4.8" height="1.68"/>
    <rect x="513.5" y="172.7" width="2.3" height="3.66"/>
    <rect x="498.5" y="178.6" width="2.3" height="9.78"/>
    <rect x="536.8" y="131.9" width="2.3" height="20.15"/>
    <rect x="570.6" y="131.9" width="2.3" height="20.15"/>
    <rect x="591.6" y="131.9" width="2.3" height="20.15"/>
    <rect x="601.7" y="154.4" width="2.3" height="34.02"/>
    <rect x="176" y="214.6" width="27.1" height="6.84"/>
    <rect x="222.4" y="214.6" width="6.5" height="6.84"/>
    <rect x="228.8" y="179.5" width="5.5" height="41.88"/>
    <rect x="230.5" y="217.3" width="5.6" height="5.88"/>
    <rect x="233.2" y="223.2" width="3" height="10.8"/>
    <rect x="113.5" y="285.4" width="32.7" height="6.84"/>
    <rect x="82.8" y="285.4" width="17.4" height="6.84"/>
    <rect x="52.1" y="285.4" width="17.4" height="6.84"/>
    <rect y="285.4" width="28.2" height="6.84"/>
    <rect y="292.2" width="6.8" height="280.2"/>
    <rect x="139.1" y="214.6" width="7.1" height="70.8"/>
    <rect x="146.2" y="214.6" width="6" height="6.84"/>
    <polygon points="6.8 572.2 13.3 569.8 15.4 574.7 0 581 0 572.2 6.8 572.2"/>
    <polygon points="62.8 549.1 94.3 536 96.4 540.8 64.8 554 62.8 549.1"/>
    <polygon points="138.8 517.4 158 509.4 160.1 514.3 141 522.4 138.8 517.4"/>
    <polygon points="211.4 487.2 255.5 468.8 257.5 473.8 213.5 492.1 211.4 487.2"/>
    <polygon points="291.2 459.7 289.2 454.8 350.2 429.4 352.3 434.3 291.2 459.7"/>
    <polygon points="394.7 410.9 428.4 396.8 430.4 401.6 396.7 415.8 394.7 410.9"/>
    <polygon points="485.9 378.6 519.6 364.6 517.6 359.6 483.8 373.7 485.9 378.6"/>
    <polygon points="570.4 343.3 633 317.3 631 312.4 568.3 338.5 570.4 343.3"/>
    <path d="M933.8,438.6s13.2-13.4,17.6-19.2l4.3,3.1a267.4,267.4,0,0,1-18.4,20Z" transform="translate(-234.9 -170.4)"/>
    <polygon points="735.6 221.3 729 232 733.3 235.1 740.4 223.6 735.6 221.3"/>
    <polygon points="759.5 158.9 764.6 159.8 767.5 142.4 762.4 141.8 759.5 158.9"/>
    <path d="M988.9,221.1a224.7,224.7,0,0,1,9,42.8l5.2-.5a195.1,195.1,0,0,0-9.2-44.5Z" transform="translate(-234.9 -170.4)"/>
    <polygon points="740.4 17.8 733.3 5.5 736.4 0 745 15 740.4 17.8"/>
    <rect x="495.1" width="241.3" height="5.52"/>
    <rect x="277.3" y="179.5" width="1.8" height="51.88"/>
    <rect x="301" y="211.3" width="1.8" height="20.08"/>
    <rect x="236.2" y="231.4" width="7.6" height="1.83"/>
    <rect x="255" y="231.4" width="4.9" height="1.83"/>
    <rect x="258.1" y="208.6" width="19.2" height="1.83"/>
    <rect x="279.1" y="211.3" width="21.8" height="1.83"/>
    <rect x="270.7" y="231.4" width="15.1" height="1.83"/>
    <rect x="296.9" y="231.4" width="14" height="1.83"/>
    <rect x="322.1" y="231.4" width="4.9" height="1.83"/>
    <rect x="325.1" y="202" width="1.8" height="29.44"/>
    <rect x="324.5" y="179.5" width="2.6" height="16.56"/>
    <rect x="405.8" y="179.5" width="2.6" height="16.56"/>
    <rect x="405.8" y="202" width="2.6" height="2.4"/>
    <rect x="405.8" y="222.5" width="2.6" height="89.76"/>
    <rect x="405.8" y="330.5" width="2.6" height="7.08"/>
    <rect x="493.5" y="177.2" width="2.6" height="18.84"/>
    <rect x="459.5" y="176.9" width="36.6" height="2.58"/>
    <rect x="325.1" y="258.5" width="1.8" height="71.52"/>
    <rect x="325.1" y="348.1" width="1.8" height="93.19"/>
    <rect x="232" y="435.4" width="2.4" height="44.94"/>
    <rect x="143.5" y="475.4" width="2.4" height="28.32"/>
    <rect x="256.2" y="208.6" width="1.8" height="22.84"/>
    <rect x="233.2" y="252.5" width="3" height="9.12"/>
    <rect x="236.2" y="252.5" width="6.6" height="6"/>
    <rect x="242.8" y="256.8" width="10.4" height="1.68"/>
    <rect x="271.4" y="256.8" width="55.5" height="1.68"/>
    <rect x="146.2" y="258.6" width="87" height="3"/>
    <rect x="141.8" y="469.6" width="5.9" height="5.88"/>
    <rect x="85.3" y="503.8" width="5.9" height="5.88"/>
    <rect x="85.3" y="429.5" width="5.9" height="5.88"/>
    <rect x="141.8" y="429.5" width="5.9" height="5.88"/>
    <rect x="230.2" y="429.5" width="5.9" height="5.88"/>
    <rect x="230.2" y="469.6" width="5.9" height="5.88"/>
    <rect x="236.8" y="450.7" width="5.9" height="5.88"/>
    <rect x="186.1" y="429.5" width="5.9" height="5.88"/>
    <rect x="236.8" y="380" width="5.9" height="5.88"/>
    <rect x="490.2" y="358.8" width="5.9" height="5.88"/>
    <rect x="490.2" y="309.2" width="5.9" height="5.88"/>
    <rect x="496.7" y="288.1" width="5.9" height="5.88"/>
    <rect x="542.9" y="288.1" width="5.9" height="5.88"/>
    <rect x="586.3" y="288.1" width="5.9" height="5.88"/>
    <rect x="496.7" y="217.3" width="5.9" height="5.88"/>
    <rect x="542.8" y="217.3" width="5.9" height="5.88"/>
    <rect x="586.3" y="217.3" width="5.9" height="5.88"/>
    <rect x="657.1" y="217.3" width="5.9" height="5.88"/>
    <rect x="720.7" y="217.3" width="5.9" height="5.88"/>
    <rect x="720.7" y="182.8" width="5.9" height="5.88"/>
    <rect x="673.2" y="182.8" width="5.9" height="5.88"/>
    <rect x="720.7" y="141.8" width="5.9" height="5.88"/>
    <rect x="657.1" y="141.8" width="5.9" height="5.88"/>
    <rect x="657.1" y="87.5" width="5.9" height="5.88"/>
    <rect x="677.6" y="51" width="5.9" height="5.88"/>
    <rect x="703" y="17.3" width="5.9" height="5.88"/>
    <rect x="637" y="17.3" width="5.9" height="5.88"/>
    <rect x="586.3" y="11.4" width="5.9" height="11.76"/>
    <rect x="514.3" y="11.4" width="5.9" height="11.76"/>
    <rect x="720.7" y="87.6" width="5.9" height="5.88"/>
    <rect x="657.1" y="252.6" width="5.9" height="5.88"/>
    <rect x="657.1" y="288.1" width="5.9" height="5.88"/>
    <rect x="490.2" y="196.1" width="5.9" height="5.88"/>
    <rect x="405.8" y="196.1" width="5.9" height="5.88"/>
    <rect x="321.2" y="196.1" width="5.9" height="5.88"/>
    <rect x="321" y="408.2" width="5.9" height="5.88"/>
    <rect x="321" y="358.8" width="5.9" height="5.88"/>
    <rect x="321" y="288" width="5.9" height="5.88"/>
    <rect x="230.2" y="288" width="5.9" height="5.88"/>
    <rect x="189.6" y="308" width="5.9" height="5.88"/>
    <rect x="141.8" y="358.7" width="5.9" height="5.88"/>
    <rect x="186" y="358.7" width="5.9" height="5.88"/>
    <rect x="230.2" y="358.7" width="5.9" height="5.88"/>
    <rect x="141.8" y="503.8" width="5.9" height="5.88"/>
    <rect x="658.8" y="258.5" width="2.3" height="29.58"/>
    <rect x="583.3" y="315.1" width="2.4" height="17.28"/>
    <rect x="342.8" y="364.3" width="7.1" height="2.52"/>
    <rect x="342.8" y="366.8" width="2.5" height="22.2"/>
    <rect x="368" y="366.8" width="2.5" height="22.2"/>
    <rect x="342.8" y="389" width="27.7" height="2.52"/>
    <rect x="363.1" y="364.3" width="7.4" height="2.52"/>
    <rect x="368.8" y="391.6" width="1.8" height="33.99"/>
    <rect x="60.5" y="457.9" width="2.3" height="11.76"/>
    <rect x="60.5" y="426.6" width="2.3" height="11.76"/>
    <rect x="708.9" y="19.1" width="36.1" height="2.28"/>
    <rect x="638.8" y="5.5" width="2.3" height="11.76"/>
    <rect x="588.1" y="5.5" width="2.3" height="5.88"/>
    <rect x="590.3" y="5.5" width="48.4" height="1.32"/>
    <rect x="60.5" y="397.1" width="61.9" height="2.4"/>
    <rect x="60.5" y="292.2" width="2.4" height="104.88"/>
    <rect x="120" y="292.2" width="2.4" height="104.88"/>
    <rect x="62.8" y="368.8" width="42.9" height="3"/>
    <rect x="116.9" y="368.8" width="3.1" height="3"/>
    <rect x="78.7" y="341.4" width="25.3" height="2.4"/>
    <rect x="78.7" y="308.6" width="25.3" height="2.4"/>
    <rect x="78.7" y="311" width="2.4" height="30.36"/>
    <rect x="101.6" y="311" width="2.4" height="30.36"/>
    <rect x="405.8" y="337.6" width="5.9" height="5.88"/>
    <rect x="405.8" y="266.8" width="5.9" height="5.88"/>
    <rect x="405.8" y="393" width="5.9" height="5.88"/>
    <rect x="409.4" y="398.9" width="2.3" height="6.94"/>
    <rect x="409.4" y="343.4" width="2.3" height="49.53"/>
</g>
<g>
    <polygon points="82.4 286.7 69.5 286.7 69.5 287.9 82.8 287.9 82.4 286.7" fill="#00a8ea"/>
    <polygon points="51.7 286.7 28.2 286.7 28.2 287.9 52.2 287.9 51.7 286.7" fill="#00a8ea"/>
    <polygon points="175.6 216 151.9 216 151.9 217.2 176 217.2 175.6 216" fill="#00a8ea"/>
    <rect x="203.2" y="216" width="19.4" height="1.2" fill="#00a8ea"/>
    <rect x="357.8" y="175.3" width="36.4" height="1.2" fill="#00a8ea"/>
    <rect x="496.6" y="52.6" width="1.2" height="22.8" fill="#00a8ea"/>
    <rect x="496.6" y="12" width="1.2" height="22.8" fill="#00a8ea"/>
    <path d="M955.8,422.6c4.4-5.5,8.6-11.1,12.5-17l-1.3-.9c-3.9,5.9-8,11.6-12.4,17.1Z" transform="translate(-234.9 -170.4)" fill="#00a8ea"/>
    <path d="M975.3,394a218.9,218.9,0,0,0,24.2-63.7l-1.5-.3a216.5,216.5,0,0,1-24,63.4Z" transform="translate(-234.9 -170.4)" fill="#00a8ea"/>
    <path d="M1002.4,312.8a217.9,217.9,0,0,0,.6-49.4h-1.6a215,215,0,0,1-.7,49.1Z" transform="translate(-234.9 -170.4)" fill="#00a8ea"/>
    <path d="M979.9,185.5a220.3,220.3,0,0,1,13.9,33.5l-1.2.5a218.3,218.3,0,0,0-13.9-33.3Z" transform="translate(-234.9 -170.4)" fill="#00a8ea"/>
    <polygon points="64.7 553.4 15.1 574.1 14.6 573 64.2 552.4 64.7 553.4" fill="#00a8ea"/>
    <polygon points="140.8 521.8 96.1 540.4 95.6 539.3 140.3 520.7 140.8 521.8" fill="#00a8ea"/>
    <polygon points="291 459.1 257.3 473.2 256.8 472.1 290.5 458 291 459.1" fill="#00a8ea"/>
    <polygon points="396.5 415.2 352 433.8 351.5 432.6 396 414.1 396.5 415.2" fill="#00a8ea"/>
    <polygon points="485.6 378 430.2 401.2 429.7 400.1 485.3 376.9 485.6 378" fill="#00a8ea"/>
    <polygon points="570.1 342.8 519.5 364 519 362.9 569.6 341.8 570.1 342.8" fill="#00a8ea"/>
    <polygon points="213.1 491.4 159.8 513.7 159.4 512.6 212.8 490.4 213.1 491.4" fill="#00a8ea"/>
    <polygon points="113 286.7 100.2 286.7 100.2 287.9 113.5 287.9 113 286.7" fill="#00a8ea"/>
    <path d="M936.1,441.3a216.4,216.4,0,0,1-68.9,44.8l.6,1.1,12.5-5.5a216.7,216.7,0,0,0,56.6-39.5Z" transform="translate(-234.9 -170.4)" fill="#00a8ea"/>
    <line x1="515.9" y1="99.6" x2="515.9" y2="99" fill="none" stroke="#231f20" stroke-linecap="round" stroke-linejoin="round" stroke-width="0.25"/>
    <line x1="515.9" y1="99.7" x2="526.4" y2="99.7" fill="none" stroke="#231f20" stroke-linecap="round" stroke-linejoin="round" stroke-width="0.25"/>
    <path d="M750.7,280.4a13.4,13.4,0,0,0,10.6-10.3" transform="translate(-234.9 -170.4)" fill="none" stroke="#231f20" stroke-linecap="round" stroke-linejoin="round" stroke-width="0.25"/>
    <polyline points="515.9 99 514.4 99 514.4 99.6 515.9 99.6 515.9 99" fill="none" stroke="#231f20" stroke-linecap="round" stroke-linejoin="round" stroke-width="0.25"/>
    <line x1="515.9" y1="116.4" x2="521.8" y2="116.4" fill="none" stroke="#231f20" stroke-linecap="round" stroke-linejoin="round" stroke-width="0.25"/>
    <path d="M756.6,286.9a7.9,7.9,0,0,0-5.9-6.1" transform="translate(-234.9 -170.4)" fill="none" stroke="#231f20" stroke-linecap="round" stroke-linejoin="round" stroke-width="0.25"/>
    <polyline points="515.9 117.1 514.4 117.1 514.4 116.5 515.9 116.5 515.9 117.1" fill="none" stroke="#231f20" stroke-linecap="round" stroke-linejoin="round" stroke-width="0.25"/>
    <g>
      <line x1="513.5" y1="172" x2="513.5" y2="172.6" fill="none" stroke="#231f20" stroke-linecap="round" stroke-linejoin="round" stroke-width="0.25"/>
      <line x1="513.5" y1="171.8" x2="502.9" y2="171.8" fill="none" stroke="#231f20" stroke-linecap="round" stroke-linejoin="round" stroke-width="0.25"/>
      <path d="M748.4,331.9a13.4,13.4,0,0,0-10.6,10.3" transform="translate(-234.9 -170.4)" fill="none" stroke="#231f20" stroke-linecap="round" stroke-linejoin="round" stroke-width="0.25"/>
      <polyline points="513.5 172.6 514.9 172.6 514.9 172 513.5 172 513.5 172.6" fill="none" stroke="#231f20" stroke-linecap="round" stroke-linejoin="round" stroke-width="0.25"/>
      <line x1="513.5" y1="155.2" x2="507.6" y2="155.2" fill="none" stroke="#231f20" stroke-linecap="round" stroke-linejoin="round" stroke-width="0.25"/>
      <path d="M742.4,325.6a7.9,7.9,0,0,0,5.9,6.1" transform="translate(-234.9 -170.4)" fill="none" stroke="#231f20" stroke-linecap="round" stroke-linejoin="round" stroke-width="0.25"/>
      <polyline points="513.5 154.4 514.9 154.4 514.9 155 513.5 155 513.5 154.4" fill="none" stroke="#231f20" stroke-linecap="round" stroke-linejoin="round" stroke-width="0.25"/>
      <line x1="233.2" y1="251.9" x2="233.2" y2="252.5" fill="none" stroke="#231f20" stroke-linecap="round" stroke-linejoin="round" stroke-width="0.25"/>
      <line x1="233.2" y1="251.8" x2="222.6" y2="251.8" fill="none" stroke="#231f20" stroke-linecap="round" stroke-linejoin="round" stroke-width="0.25"/>
      <path d="M468.1,411.7a13.4,13.4,0,0,0-10.6,10.3" transform="translate(-234.9 -170.4)" fill="none" stroke="#231f20" stroke-linecap="round" stroke-linejoin="round" stroke-width="0.25"/>
      <polyline points="233.2 252.4 234.6 252.4 234.6 251.9 233.2 251.9 233.2 252.4" fill="none" stroke="#231f20" stroke-linecap="round" stroke-linejoin="round" stroke-width="0.25"/>
      <line x1="233.2" y1="235" x2="227.3" y2="235" fill="none" stroke="#231f20" stroke-linecap="round" stroke-linejoin="round" stroke-width="0.25"/>
      <path d="M462.1,405.4a7.9,7.9,0,0,0,5.9,6.1" transform="translate(-234.9 -170.4)" fill="none" stroke="#231f20" stroke-linecap="round" stroke-linejoin="round" stroke-width="0.25"/>
      <polyline points="233.2 234.2 234.6 234.2 234.6 234.8 233.2 234.8 233.2 234.2" fill="none" stroke="#231f20" stroke-linecap="round" stroke-linejoin="round" stroke-width="0.25"/>
      <line x1="405.8" y1="329.8" x2="405.8" y2="330.4" fill="none" stroke="#231f20" stroke-linecap="round" stroke-linejoin="round" stroke-width="0.25"/>
      <line x1="405.8" y1="329.6" x2="395.3" y2="329.6" fill="none" stroke="#231f20" stroke-linecap="round" stroke-linejoin="round" stroke-width="0.25"/>
      <path d="M640.8,489.7a13.4,13.4,0,0,0-10.6,10.3" transform="translate(-234.9 -170.4)" fill="none" stroke="#231f20" stroke-linecap="round" stroke-linejoin="round" stroke-width="0.25"/>
      <polyline points="405.8 330.4 407.3 330.4 407.3 329.8 405.8 329.8 405.8 330.4" fill="none" stroke="#231f20" stroke-linecap="round" stroke-linejoin="round" stroke-width="0.25"/>
      <line x1="405.8" y1="312.8" x2="400" y2="312.8" fill="none" stroke="#231f20" stroke-linecap="round" stroke-linejoin="round" stroke-width="0.25"/>
      <path d="M634.8,483.2a7.9,7.9,0,0,0,5.9,6.1" transform="translate(-234.9 -170.4)" fill="none" stroke="#231f20" stroke-linecap="round" stroke-linejoin="round" stroke-width="0.25"/>
      <polyline points="407.3 312.2 407.3 312.8 405.8 312.8" fill="none" stroke="#231f20" stroke-linecap="round" stroke-linejoin="round" stroke-width="0.25"/>
      <polyline points="405.8 312.7 405.8 312.2 407.3 312.2" fill="none" stroke="#231f20" stroke-linecap="round" stroke-linejoin="round" stroke-width="0.25"/>
      <line x1="296.3" y1="231.4" x2="296.3" y2="222" fill="none" stroke="#231f20" stroke-linecap="round" stroke-linejoin="round" stroke-width="0.25"/>
      <path d="M531.1,392.4a11.2,11.2,0,0,0-10,9.5" transform="translate(-234.9 -170.4)" fill="none" stroke="#231f20" stroke-linecap="round" stroke-linejoin="round" stroke-width="0.25"/>
      <polyline points="296.6 231.4 296.3 231.4 296.3 232.3 296.6 232.3" fill="none" stroke="#231f20" stroke-linecap="round" stroke-linejoin="round" stroke-width="0.25"/>
      <polyline points="285.8 231.4 286.2 231.4 286.2 232.3 285.8 232.3" fill="none" stroke="#231f20" stroke-linecap="round" stroke-linejoin="round" stroke-width="0.25"/>
      <line x1="296.6" y1="231.4" x2="296.6" y2="232.3" fill="none" stroke="#231f20" stroke-linecap="round" stroke-linejoin="round" stroke-width="0.25"/>
      <line x1="285.8" y1="231.4" x2="285.8" y2="232.3" fill="none" stroke="#231f20" stroke-linecap="round" stroke-linejoin="round" stroke-width="0.25"/>
      <line x1="260.3" y1="231.4" x2="260.3" y2="222" fill="none" stroke="#231f20" stroke-linecap="round" stroke-linejoin="round" stroke-width="0.25"/>
      <path d="M505,401.8a11.2,11.2,0,0,0-10-9.5" transform="translate(-234.9 -170.4)" fill="none" stroke="#231f20" stroke-linecap="round" stroke-linejoin="round" stroke-width="0.25"/>
      <polyline points="259.9 231.4 260.3 231.4 260.3 232.3 259.9 232.3" fill="none" stroke="#231f20" stroke-linecap="round" stroke-linejoin="round" stroke-width="0.25"/>
      <polyline points="270.7 231.4 270.4 231.4 270.4 232.3 270.7 232.3" fill="none" stroke="#231f20" stroke-linecap="round" stroke-linejoin="round" stroke-width="0.25"/>
      <line x1="259.9" y1="231.4" x2="259.9" y2="232.3" fill="none" stroke="#231f20" stroke-linecap="round" stroke-linejoin="round" stroke-width="0.25"/>
      <line x1="270.7" y1="231.4" x2="270.7" y2="232.3" fill="none" stroke="#231f20" stroke-linecap="round" stroke-linejoin="round" stroke-width="0.25"/>
      <line x1="326.9" y1="347.5" x2="326.9" y2="348.1" fill="none" stroke="#231f20" stroke-linecap="round" stroke-linejoin="round" stroke-width="0.25"/>
      <line x1="326.9" y1="347.4" x2="337.4" y2="347.4" fill="none" stroke="#231f20" stroke-linecap="round" stroke-linejoin="round" stroke-width="0.25"/>
      <path d="M572.4,517.8a13.4,13.4,0,0,0-10.6-10.3" transform="translate(-234.9 -170.4)" fill="none" stroke="#231f20" stroke-linecap="round" stroke-linejoin="round" stroke-width="0.25"/>
      <polyline points="326.9 348.1 325.4 348.1 325.4 347.5 326.9 347.5 326.9 348.1" fill="none" stroke="#231f20" stroke-linecap="round" stroke-linejoin="round" stroke-width="0.25"/>
      <line x1="326.9" y1="330.7" x2="332.8" y2="330.7" fill="none" stroke="#231f20" stroke-linecap="round" stroke-linejoin="round" stroke-width="0.25"/>
      <path d="M561.7,507.2a7.9,7.9,0,0,0,5.9-6.1" transform="translate(-234.9 -170.4)" fill="none" stroke="#231f20" stroke-linecap="round" stroke-linejoin="round" stroke-width="0.25"/>
      <polyline points="326.9 330 325.4 330 325.4 330.6 326.9 330.6 326.9 330" fill="none" stroke="#231f20" stroke-linecap="round" stroke-linejoin="round" stroke-width="0.25"/>
      <line x1="405.8" y1="204.8" x2="405.8" y2="204.2" fill="none" stroke="#231f20" stroke-linecap="round" stroke-linejoin="round" stroke-width="0.25"/>
      <line x1="405.8" y1="205" x2="395.3" y2="205" fill="none" stroke="#231f20" stroke-linecap="round" stroke-linejoin="round" stroke-width="0.25"/>
      <path d="M630.1,375.4a13.4,13.4,0,0,0,10.6,10.3" transform="translate(-234.9 -170.4)" fill="none" stroke="#231f20" stroke-linecap="round" stroke-linejoin="round" stroke-width="0.25"/>
      <polyline points="405.8 204.4 407.3 204.4 407.3 204.8 405.8 204.8 405.8 204.4" fill="none" stroke="#231f20" stroke-linecap="round" stroke-linejoin="round" stroke-width="0.25"/>
      <line x1="405.8" y1="221.8" x2="400" y2="221.8" fill="none" stroke="#231f20" stroke-linecap="round" stroke-linejoin="round" stroke-width="0.25"/>
      <path d="M640.7,386a7.9,7.9,0,0,0-5.9,6.1" transform="translate(-234.9 -170.4)" fill="none" stroke="#231f20" stroke-linecap="round" stroke-linejoin="round" stroke-width="0.25"/>
      <polyline points="405.8 222.5 407.3 222.5 407.3 221.9 405.8 221.9 405.8 222.5" fill="none" stroke="#231f20" stroke-linecap="round" stroke-linejoin="round" stroke-width="0.25"/>
      <line x1="253.8" y1="257.2" x2="253.2" y2="257.2" fill="none" stroke="#231f20" stroke-linecap="round" stroke-linejoin="round" stroke-width="0.25"/>
      <line x1="253.9" y1="257.2" x2="253.9" y2="246.5" fill="none" stroke="#231f20" stroke-linecap="round" stroke-linejoin="round" stroke-width="0.25"/>
      <path d="M499.1,427.5a13.4,13.4,0,0,0-10.3-10.6" transform="translate(-234.9 -170.4)" fill="none" stroke="#231f20" stroke-linecap="round" stroke-linejoin="round" stroke-width="0.25"/>
      <polyline points="253.2 257.2 253.2 258.5 253.8 258.5 253.8 257.2 253.2 257.2" fill="none" stroke="#231f20" stroke-linecap="round" stroke-linejoin="round" stroke-width="0.25"/>
      <line x1="270.6" y1="257.2" x2="270.6" y2="251.3" fill="none" stroke="#231f20" stroke-linecap="round" stroke-linejoin="round" stroke-width="0.25"/>
      <path d="M505.6,421.6a7.9,7.9,0,0,0-6.1,5.9" transform="translate(-234.9 -170.4)" fill="none" stroke="#231f20" stroke-linecap="round" stroke-linejoin="round" stroke-width="0.25"/>
      <polyline points="271.3 257.2 271.3 258.5 270.7 258.5 270.7 257.2 271.3 257.2" fill="none" stroke="#231f20" stroke-linecap="round" stroke-linejoin="round" stroke-width="0.25"/>
      <line x1="321.7" y1="231.4" x2="321.7" y2="222" fill="none" stroke="#231f20" stroke-linecap="round" stroke-linejoin="round" stroke-width="0.25"/>
      <path d="M556.5,392.4a11.2,11.2,0,0,0-10,9.5" transform="translate(-234.9 -170.4)" fill="none" stroke="#231f20" stroke-linecap="round" stroke-linejoin="round" stroke-width="0.25"/>
      <polyline points="322.1 231.4 321.7 231.4 321.7 232.3 322.1 232.3" fill="none" stroke="#231f20" stroke-linecap="round" stroke-linejoin="round" stroke-width="0.25"/>
      <polyline points="311.2 231.4 311.5 231.4 311.5 232.3 311.2 232.3" fill="none" stroke="#231f20" stroke-linecap="round" stroke-linejoin="round" stroke-width="0.25"/>
      <line x1="322.1" y1="231.4" x2="322.1" y2="232.3" fill="none" stroke="#231f20" stroke-linecap="round" stroke-linejoin="round" stroke-width="0.25"/>
      <line x1="311.2" y1="231.4" x2="311.2" y2="232.3" fill="none" stroke="#231f20" stroke-linecap="round" stroke-linejoin="round" stroke-width="0.25"/>
      <line x1="254.6" y1="231.4" x2="254.6" y2="222" fill="none" stroke="#231f20" stroke-linecap="round" stroke-linejoin="round" stroke-width="0.25"/>
      <path d="M489.5,392.4a11.2,11.2,0,0,0-10,9.5" transform="translate(-234.9 -170.4)" fill="none" stroke="#231f20" stroke-linecap="round" stroke-linejoin="round" stroke-width="0.25"/>
      <polyline points="255 231.4 254.6 231.4 254.6 232.3 255 232.3" fill="none" stroke="#231f20" stroke-linecap="round" stroke-linejoin="round" stroke-width="0.25"/>
      <polyline points="244.1 231.4 244.4 231.4 244.4 232.3 244.1 232.3" fill="none" stroke="#231f20" stroke-linecap="round" stroke-linejoin="round" stroke-width="0.25"/>
      <line x1="255" y1="231.4" x2="255" y2="232.3" fill="none" stroke="#231f20" stroke-linecap="round" stroke-linejoin="round" stroke-width="0.25"/>
      <line x1="244.1" y1="231.4" x2="244.1" y2="232.3" fill="none" stroke="#231f20" stroke-linecap="round" stroke-linejoin="round" stroke-width="0.25"/>
      <line x1="116.5" y1="371.6" x2="116.5" y2="381.1" fill="none" stroke="#231f20" stroke-linecap="round" stroke-linejoin="round" stroke-width="0.25"/>
      <path d="M341.5,542.1a11.3,11.3,0,0,0,9.9,9.4" transform="translate(-234.9 -170.4)" fill="none" stroke="#231f20" stroke-linecap="round" stroke-linejoin="round" stroke-width="0.25"/>
      <polyline points="116.9 371.6 116.5 371.6 116.5 370.7 116.9 370.7" fill="none" stroke="#231f20" stroke-linecap="round" stroke-linejoin="round" stroke-width="0.25"/>
      <polyline points="105.7 371.6 106.1 371.6 106.1 370.7 105.7 370.7" fill="none" stroke="#231f20" stroke-linecap="round" stroke-linejoin="round" stroke-width="0.25"/>
  </g>
  <g>
      <polyline points="207.8 258.1 207.8 242.2 204.2 242.2 204.2 258.1 207.8 258.1" fill="none" stroke="#000" stroke-linecap="round" stroke-linejoin="round" stroke-width="0.25"/>
      <polyline points="204.2 258.1 204.2 242.2 200.8 242.2 200.8 258.1 204.2 258.1" fill="none" stroke="#000" stroke-linecap="round" stroke-linejoin="round" stroke-width="0.25"/>
      <polyline points="200.8 258.1 200.8 242.2 197.2 242.2 197.2 258.1 200.8 258.1" fill="none" stroke="#000" stroke-linecap="round" stroke-linejoin="round" stroke-width="0.25"/>
      <polyline points="197.2 258.1 197.2 242.2 193.7 242.2 193.7 258.1 197.2 258.1" fill="none" stroke="#000" stroke-linecap="round" stroke-linejoin="round" stroke-width="0.25"/>
      <polyline points="193.7 258.1 193.7 242.2 190.1 242.2 190.1 258.1 193.7 258.1" fill="none" stroke="#000" stroke-linecap="round" stroke-linejoin="round" stroke-width="0.25"/>
      <polyline points="190.1 258.1 190.1 242.2 186.6 242.2 186.6 258.1 190.1 258.1" fill="none" stroke="#000" stroke-linecap="round" stroke-linejoin="round" stroke-width="0.25"/>
      <polyline points="186.6 258.1 186.6 242.2 183.1 242.2 183.1 258.1 186.6 258.1" fill="none" stroke="#000" stroke-linecap="round" stroke-linejoin="round" stroke-width="0.25"/>
      <polyline points="183.1 258.1 183.1 242.2 179.5 242.2 179.5 258.1 183.1 258.1" fill="none" stroke="#000" stroke-linecap="round" stroke-linejoin="round" stroke-width="0.25"/>
      <polyline points="179.5 258.1 179.5 242.2 176 242.2 176 258.1 179.5 258.1" fill="none" stroke="#000" stroke-linecap="round" stroke-linejoin="round" stroke-width="0.25"/>
      <polyline points="176 258.1 176 242.2 172.4 242.2 172.4 258.1 176 258.1" fill="none" stroke="#000" stroke-linecap="round" stroke-linejoin="round" stroke-width="0.25"/>
      <polyline points="172.4 258.1 172.4 242.2 169 242.2 169 258.1 172.4 258.1" fill="none" stroke="#000" stroke-linecap="round" stroke-linejoin="round" stroke-width="0.25"/>
      <polyline points="169 258.1 169 242.2 165.4 242.2 165.4 258.1 169 258.1" fill="none" stroke="#000" stroke-linecap="round" stroke-linejoin="round" stroke-width="0.25"/>
      <polyline points="165.4 258.1 165.4 242.2 161.9 242.2 161.9 258.1 165.4 258.1" fill="none" stroke="#000" stroke-linecap="round" stroke-linejoin="round" stroke-width="0.25"/>
      <polyline points="207.8 239.2 207.8 223.3 204.2 223.3 204.2 239.2 207.8 239.2" fill="none" stroke="#000" stroke-linecap="round" stroke-linejoin="round" stroke-width="0.25"/>
      <polyline points="204.2 239.2 204.2 223.3 200.8 223.3 200.8 239.2 204.2 239.2" fill="none" stroke="#000" stroke-linecap="round" stroke-linejoin="round" stroke-width="0.25"/>
      <polyline points="200.8 239.2 200.8 223.3 197.2 223.3 197.2 239.2 200.8 239.2" fill="none" stroke="#000" stroke-linecap="round" stroke-linejoin="round" stroke-width="0.25"/>
      <polyline points="197.2 239.2 197.2 223.3 193.7 223.3 193.7 239.2 197.2 239.2" fill="none" stroke="#000" stroke-linecap="round" stroke-linejoin="round" stroke-width="0.25"/>
      <polyline points="193.7 239.2 193.7 223.3 190.1 223.3 190.1 239.2 193.7 239.2" fill="none" stroke="#000" stroke-linecap="round" stroke-linejoin="round" stroke-width="0.25"/>
      <polyline points="190.1 239.2 190.1 223.3 186.6 223.3 186.6 239.2 190.1 239.2" fill="none" stroke="#000" stroke-linecap="round" stroke-linejoin="round" stroke-width="0.25"/>
      <polyline points="186.6 239.2 186.6 223.3 183.1 223.3 183.1 239.2 186.6 239.2" fill="none" stroke="#000" stroke-linecap="round" stroke-linejoin="round" stroke-width="0.25"/>
      <polyline points="183.1 239.2 183.1 223.3 179.5 223.3 179.5 239.2 183.1 239.2" fill="none" stroke="#000" stroke-linecap="round" stroke-linejoin="round" stroke-width="0.25"/>
      <polyline points="179.5 239.2 179.5 223.3 176 223.3 176 239.2 179.5 239.2" fill="none" stroke="#000" stroke-linecap="round" stroke-linejoin="round" stroke-width="0.25"/>
      <polyline points="176 239.2 176 223.3 172.4 223.3 172.4 239.2 176 239.2" fill="none" stroke="#000" stroke-linecap="round" stroke-linejoin="round" stroke-width="0.25"/>
      <polyline points="172.4 239.2 172.4 223.3 169 223.3 169 239.2 172.4 239.2" fill="none" stroke="#000" stroke-linecap="round" stroke-linejoin="round" stroke-width="0.25"/>
      <polyline points="169 239.2 169 223.3 165.4 223.3 165.4 239.2 169 239.2" fill="none" stroke="#000" stroke-linecap="round" stroke-linejoin="round" stroke-width="0.25"/>
      <polyline points="165.4 239.2 165.4 223.3 161.9 223.3 161.9 239.2 165.4 239.2" fill="none" stroke="#000" stroke-linecap="round" stroke-linejoin="round" stroke-width="0.25"/>
      <polyline points="207.8 231.2 161.9 231.2 164.9 233" fill="none" stroke="#000" stroke-linecap="round" stroke-linejoin="round" stroke-width="0.25"/>
      <line x1="161.9" y1="231.2" x2="164.9" y2="229.4" fill="none" stroke="#000" stroke-linecap="round" stroke-linejoin="round" stroke-width="0.25"/>
      <polyline points="161.9 250.1 207.8 250.1 204.7 251.9" fill="none" stroke="#000" stroke-linecap="round" stroke-linejoin="round" stroke-width="0.25"/>
      <line x1="207.8" y1="250.1" x2="204.7" y2="248.4" fill="none" stroke="#000" stroke-linecap="round" stroke-linejoin="round" stroke-width="0.25"/>
  </g>
  <g>
      <line x1="564.2" y1="116" x2="564.2" y2="129.6" fill="none" stroke="#000" stroke-linecap="round" stroke-linejoin="round" stroke-width="0.25"/>
      <line x1="543" y1="116" x2="543" y2="129.6" fill="none" stroke="#000" stroke-linecap="round" stroke-linejoin="round" stroke-width="0.25"/>
      <line x1="546.5" y1="116" x2="546.5" y2="129.6" fill="none" stroke="#000" stroke-linecap="round" stroke-linejoin="round" stroke-width="0.25"/>
      <line x1="550.1" y1="116" x2="550.1" y2="129.6" fill="none" stroke="#000" stroke-linecap="round" stroke-linejoin="round" stroke-width="0.25"/>
      <line x1="553.6" y1="116" x2="553.6" y2="129.6" fill="none" stroke="#000" stroke-linecap="round" stroke-linejoin="round" stroke-width="0.25"/>
      <line x1="557.2" y1="116" x2="557.2" y2="129.6" fill="none" stroke="#000" stroke-linecap="round" stroke-linejoin="round" stroke-width="0.25"/>
      <line x1="560.6" y1="116" x2="560.6" y2="129.6" fill="none" stroke="#000" stroke-linecap="round" stroke-linejoin="round" stroke-width="0.25"/>
      <polyline points="539.4 116 539.4 129.6 574.8 129.6 574.8 116" fill="none" stroke="#000" stroke-linecap="round" stroke-linejoin="round" stroke-width="0.25"/>
      <line x1="539.4" y1="116" x2="574.8" y2="116" fill="none" stroke="#000" stroke-linecap="round" stroke-linejoin="round" stroke-width="0.25"/>
      <line x1="539.4" y1="122.8" x2="574.8" y2="122.8" fill="none" stroke="#000" stroke-linecap="round" stroke-linejoin="round" stroke-width="0.25"/>
      <path d="M774.3,292.6a.5.5,0,1,0,.5.5.5.5,0,0,0-.5-.5" transform="translate(-234.9 -170.4)" fill="none" stroke="#000" stroke-linecap="round" stroke-linejoin="round" stroke-width="0.25"/>
      <polyline points="571.6 121.9 574.8 122.8 571.6 123.6" fill="none" stroke="#000" stroke-linecap="round" stroke-linejoin="round" stroke-width="0.25"/>
      <line x1="571.3" y1="116" x2="571.3" y2="129.6" fill="none" stroke="#000" stroke-linecap="round" stroke-linejoin="round" stroke-width="0.25"/>
      <line x1="567.7" y1="116" x2="567.7" y2="129.6" fill="none" stroke="#000" stroke-linecap="round" stroke-linejoin="round" stroke-width="0.25"/>
      <line x1="549.4" y1="111.5" x2="549.4" y2="97.9" fill="none" stroke="#000" stroke-linecap="round" stroke-linejoin="round" stroke-width="0.25"/>
      <line x1="570.6" y1="111.5" x2="570.6" y2="97.9" fill="none" stroke="#000" stroke-linecap="round" stroke-linejoin="round" stroke-width="0.25"/>
      <line x1="567.1" y1="111.5" x2="567.1" y2="97.9" fill="none" stroke="#000" stroke-linecap="round" stroke-linejoin="round" stroke-width="0.25"/>
      <line x1="563.5" y1="111.5" x2="563.5" y2="97.9" fill="none" stroke="#000" stroke-linecap="round" stroke-linejoin="round" stroke-width="0.25"/>
      <line x1="560" y1="111.5" x2="560" y2="97.9" fill="none" stroke="#000" stroke-linecap="round" stroke-linejoin="round" stroke-width="0.25"/>
      <line x1="556.4" y1="111.5" x2="556.4" y2="97.9" fill="none" stroke="#000" stroke-linecap="round" stroke-linejoin="round" stroke-width="0.25"/>
      <line x1="553" y1="111.5" x2="553" y2="97.9" fill="none" stroke="#000" stroke-linecap="round" stroke-linejoin="round" stroke-width="0.25"/>
      <polyline points="574.2 111.5 574.2 97.9 538.8 97.9 538.8 111.5" fill="none" stroke="#000" stroke-linecap="round" stroke-linejoin="round" stroke-width="0.25"/>
      <line x1="574.2" y1="111.5" x2="538.8" y2="111.5" fill="none" stroke="#000" stroke-linecap="round" stroke-linejoin="round" stroke-width="0.25"/>
      <line x1="574.2" y1="104.8" x2="538.8" y2="104.8" fill="none" stroke="#000" stroke-linecap="round" stroke-linejoin="round" stroke-width="0.25"/>
      <path d="M809.2,275.8a.5.5,0,1,0-.5-.5.5.5,0,0,0,.5.5" transform="translate(-234.9 -170.4)" fill="none" stroke="#000" stroke-linecap="round" stroke-linejoin="round" stroke-width="0.25"/>
      <polyline points="542 105.6 538.8 104.8 542 103.9" fill="none" stroke="#000" stroke-linecap="round" stroke-linejoin="round" stroke-width="0.25"/>
      <line x1="542.3" y1="111.5" x2="542.3" y2="97.9" fill="none" stroke="#000" stroke-linecap="round" stroke-linejoin="round" stroke-width="0.25"/>
      <line x1="545.9" y1="111.5" x2="545.9" y2="97.9" fill="none" stroke="#000" stroke-linecap="round" stroke-linejoin="round" stroke-width="0.25"/>
      <polyline points="531.2 111.5 531.2 116 539.4 116" fill="none" stroke="#000" stroke-linecap="round" stroke-linejoin="round" stroke-width="0.25"/>
  </g>
  <rect x="513.5" y="118.8" width="1.2" height="10.92" fill="#00a8ea"/>
  <polyline points="405.8 363.6 390 363.6 390 367.1 405.8 367.1 405.8 363.6" fill="none" stroke="#000" stroke-linecap="round" stroke-linejoin="round" stroke-width="0.25"/>
  <polyline points="405.8 367.1 390 367.1 390 370.7 405.8 370.7 405.8 367.1" fill="none" stroke="#000" stroke-linecap="round" stroke-linejoin="round" stroke-width="0.25"/>
  <polyline points="405.8 370.7 390 370.7 390 374.2 405.8 374.2 405.8 370.7" fill="none" stroke="#000" stroke-linecap="round" stroke-linejoin="round" stroke-width="0.25"/>
  <polyline points="405.8 374.2 390 374.2 390 377.8 405.8 377.8 405.8 374.2" fill="none" stroke="#000" stroke-linecap="round" stroke-linejoin="round" stroke-width="0.25"/>
  <polyline points="405.8 377.8 390 377.8 390 381.2 405.8 381.2 405.8 377.8" fill="none" stroke="#000" stroke-linecap="round" stroke-linejoin="round" stroke-width="0.25"/>
  <polyline points="405.8 381.2 390 381.2 390 384.8 405.8 384.8 405.8 381.2" fill="none" stroke="#000" stroke-linecap="round" stroke-linejoin="round" stroke-width="0.25"/>
  <polyline points="405.8 384.8 390 384.8 390 388.3 405.8 388.3 405.8 384.8" fill="none" stroke="#000" stroke-linecap="round" stroke-linejoin="round" stroke-width="0.25"/>
  <polyline points="397.9 358.6 397.9 388.3 399.7 385.3" fill="none" stroke="#000" stroke-linecap="round" stroke-linejoin="round" stroke-width="0.25"/>
  <line x1="397.9" y1="388.3" x2="396.1" y2="385.3" fill="none" stroke="#000" stroke-linecap="round" stroke-linejoin="round" stroke-width="0.25"/>
  <rect x="390" y="358.6" width="15.8" height="5.04" fill="none" stroke="#000" stroke-linecap="round" stroke-linejoin="round" stroke-width="0.25"/>
  <line x1="390" y1="360" x2="405.8" y2="360" fill="none" stroke="#000" stroke-linecap="round" stroke-linejoin="round" stroke-width="0.25"/>
  <g>
      <line x1="76.3" y1="331.4" x2="62.8" y2="331.4" fill="none" stroke="#000" stroke-linecap="round" stroke-linejoin="round" stroke-width="0.25"/>
      <line x1="76.3" y1="310.2" x2="62.8" y2="310.2" fill="none" stroke="#000" stroke-linecap="round" stroke-linejoin="round" stroke-width="0.25"/>
      <line x1="76.3" y1="313.7" x2="62.8" y2="313.7" fill="none" stroke="#000" stroke-linecap="round" stroke-linejoin="round" stroke-width="0.25"/>
      <line x1="76.3" y1="317.3" x2="62.8" y2="317.3" fill="none" stroke="#000" stroke-linecap="round" stroke-linejoin="round" stroke-width="0.25"/>
      <line x1="76.3" y1="320.8" x2="62.8" y2="320.8" fill="none" stroke="#000" stroke-linecap="round" stroke-linejoin="round" stroke-width="0.25"/>
      <line x1="76.3" y1="324.4" x2="62.8" y2="324.4" fill="none" stroke="#000" stroke-linecap="round" stroke-linejoin="round" stroke-width="0.25"/>
      <line x1="76.3" y1="327.8" x2="62.8" y2="327.8" fill="none" stroke="#000" stroke-linecap="round" stroke-linejoin="round" stroke-width="0.25"/>
      <polyline points="69.6 310.2 69.6 342 67.7 338.6" fill="none" stroke="#000" stroke-linecap="round" stroke-linejoin="round" stroke-width="0.25"/>
      <line x1="69.6" y1="342" x2="71.8" y2="338.6" fill="none" stroke="#000" stroke-linecap="round" stroke-linejoin="round" stroke-width="0.25"/>
      <line x1="76.3" y1="342" x2="76.3" y2="310.2" fill="none" stroke="#000" stroke-linecap="round" stroke-linejoin="round" stroke-width="0.25"/>
      <line x1="62.8" y1="342" x2="62.8" y2="310.2" fill="none" stroke="#000" stroke-linecap="round" stroke-linejoin="round" stroke-width="0.25"/>
      <line x1="76.3" y1="334.9" x2="62.8" y2="334.9" fill="none" stroke="#000" stroke-linecap="round" stroke-linejoin="round" stroke-width="0.25"/>
      <line x1="76.3" y1="338.5" x2="62.8" y2="338.5" fill="none" stroke="#000" stroke-linecap="round" stroke-linejoin="round" stroke-width="0.25"/>
      <line x1="76.3" y1="342" x2="62.8" y2="342" fill="none" stroke="#000" stroke-linecap="round" stroke-linejoin="round" stroke-width="0.25"/>
  </g>
  <g>
      <line x1="106.4" y1="320.8" x2="120" y2="320.8" fill="none" stroke="#000" stroke-linecap="round" stroke-linejoin="round" stroke-width="0.25"/>
      <line x1="106.4" y1="342" x2="120" y2="342" fill="none" stroke="#000" stroke-linecap="round" stroke-linejoin="round" stroke-width="0.25"/>
      <line x1="106.4" y1="338.5" x2="120" y2="338.5" fill="none" stroke="#000" stroke-linecap="round" stroke-linejoin="round" stroke-width="0.25"/>
      <line x1="106.4" y1="334.9" x2="120" y2="334.9" fill="none" stroke="#000" stroke-linecap="round" stroke-linejoin="round" stroke-width="0.25"/>
      <line x1="106.4" y1="331.4" x2="120" y2="331.4" fill="none" stroke="#000" stroke-linecap="round" stroke-linejoin="round" stroke-width="0.25"/>
      <line x1="106.4" y1="327.8" x2="120" y2="327.8" fill="none" stroke="#000" stroke-linecap="round" stroke-linejoin="round" stroke-width="0.25"/>
      <line x1="106.4" y1="324.4" x2="120" y2="324.4" fill="none" stroke="#000" stroke-linecap="round" stroke-linejoin="round" stroke-width="0.25"/>
      <polyline points="113.2 342 113.2 310.2 115.1 313.6" fill="none" stroke="#000" stroke-linecap="round" stroke-linejoin="round" stroke-width="0.25"/>
      <line x1="113.2" y1="310.2" x2="111" y2="313.6" fill="none" stroke="#000" stroke-linecap="round" stroke-linejoin="round" stroke-width="0.25"/>
      <line x1="106.4" y1="310.2" x2="106.4" y2="342" fill="none" stroke="#000" stroke-linecap="round" stroke-linejoin="round" stroke-width="0.25"/>
      <line x1="120" y1="310.2" x2="120" y2="342" fill="none" stroke="#000" stroke-linecap="round" stroke-linejoin="round" stroke-width="0.25"/>
      <line x1="106.4" y1="317.3" x2="120" y2="317.3" fill="none" stroke="#000" stroke-linecap="round" stroke-linejoin="round" stroke-width="0.25"/>
      <line x1="106.4" y1="313.7" x2="120" y2="313.7" fill="none" stroke="#000" stroke-linecap="round" stroke-linejoin="round" stroke-width="0.25"/>
      <line x1="106.4" y1="310.2" x2="120" y2="310.2" fill="none" stroke="#000" stroke-linecap="round" stroke-linejoin="round" stroke-width="0.25"/>
  </g>
  <g>
      <line x1="78.1" y1="495.5" x2="62.7" y2="495.5" fill="none" stroke="#000" stroke-linecap="round" stroke-linejoin="round" stroke-width="0.25"/>
      <line x1="74.6" y1="495.5" x2="74.6" y2="472.5" fill="none" stroke="#000" stroke-linecap="round" stroke-linejoin="round" stroke-width="0.25"/>
      <line x1="71" y1="495.5" x2="71" y2="472.5" fill="none" stroke="#000" stroke-linecap="round" stroke-linejoin="round" stroke-width="0.25"/>
      <line x1="67.5" y1="495.5" x2="67.5" y2="472.5" fill="none" stroke="#000" stroke-linecap="round" stroke-linejoin="round" stroke-width="0.25"/>
      <line x1="78.1" y1="483.6" x2="67.5" y2="483.6" fill="none" stroke="#000" stroke-linecap="round" stroke-linejoin="round" stroke-width="0.25"/>
      <polyline points="69.8 481.2 67.5 483.6 69.8 486" fill="none" stroke="#000" stroke-linecap="round" stroke-linejoin="round" stroke-width="0.25"/>
      <line x1="78.1" y1="472.5" x2="62.7" y2="472.5" fill="none" stroke="#000" stroke-linecap="round" stroke-linejoin="round" stroke-width="0.25"/>
      <line x1="78.1" y1="495.5" x2="78.1" y2="472.5" fill="none" stroke="#000" stroke-linecap="round" stroke-linejoin="round" stroke-width="0.25"/>
  </g>
</g>
<g>
    <text transform="translate(544.6 257)" font-size="14" fill="#232020" font-family="PTSans-Bold, PT Sans" font-weight="700">608,1</text>
    <text transform="translate(351.5 276.5)" font-size="14" fill="#232020" font-family="PTSans-Bold, PT Sans" font-weight="700">134,4</text>
    <text transform="translate(230.5 334.9)" font-size="14" fill="#232020" font-family="PTSans-Bold, PT Sans" font-weight="700">474,8</text>
</g>
</svg>
